Coordinates
version=1
nRows=6
nColumns=63
inDegrees=yes

Units are S.I. units (second, meters, Newtons, ...)
If the header above contains a line with 'inDegrees', this indicates whether rotational values are in degrees (yes) or radians (no).

endheader
time	pelvis_tilt	pelvis_list	pelvis_rotation	pelvis_tx	pelvis_ty	pelvis_tz	hip_flexion_r	hip_adduction_r	hip_rotation_r	knee_angle_r	knee_angle_r_beta	ankle_angle_r	subtalar_angle_r	mtp_angle_r	hip_flexion_l	hip_adduction_l	hip_rotation_l	knee_angle_l	knee_angle_l_beta	ankle_angle_l	subtalar_angle_l	mtp_angle_l	L5_S1_Flex_Ext	L5_S1_Lat_Bending	L5_S1_axial_rotation	L4_L5_Flex_Ext	L4_L5_Lat_Bending	L4_L5_axial_rotation	L3_L4_Flex_Ext	L3_L4_Lat_Bending	L3_L4_axial_rotation	L2_L3_Flex_Ext	L2_L3_Lat_Bending	L2_L3_axial_rotation	L1_L2_Flex_Ext	L1_L2_Lat_Bending	L1_L2_axial_rotation	L1_T12_Flex_Ext	L1_T12_Lat_Bending	L1_T12_axial_rotation	Abs_r3	Abs_r2	Abs_r1	Abs_t1	Abs_t2	neck_flexion	neck_bending	neck_rotation	arm_flex_r	arm_add_r	arm_rot_r	elbow_flex_r	pro_sup_r	wrist_flex_r	wrist_dev_r	arm_flex_l	arm_add_l	arm_rot_l	elbow_flex_l	pro_sup_l	wrist_flex_l	wrist_dev_l
0.000000	-5.744376	-3.646168	75.050057	0.106420	0.966179	0.323123	1.005214	-4.216267	-7.520287	0.248618	0.004339	14.293310	17.190409	0.000000	1.434186	6.170255	-6.284157	1.368967	0.023893	7.817189	-14.874183	0.000000	0.061738	-0.629922	1.492310	0.114653	-0.837796	1.585579	0.101429	-1.531592	1.585579	0.070560	-1.531592	1.305771	0.057330	-1.284537	1.212502	0.035277	-0.975749	1.119232	0.440987	-7.125802	8.299778	0.000000	0.000000	15.254997	0.886428	21.513604	22.934400	-5.269683	55.106224	67.683202	24.216779	-5.385122	15.170805	21.616435	-12.163929	48.450282	47.605226	53.262060	-6.689517	2.931337
0.016667	-5.618120	-3.684524	74.943456	0.105470	0.965923	0.323092	1.012823	-4.132774	-7.086959	0.237324	0.004142	13.987226	16.780265	0.000000	1.393406	6.153661	-6.373000	1.498424	0.026152	7.790835	-15.314567	0.000000	0.059691	-0.615286	1.607967	0.110853	-0.818330	1.708465	0.098067	-1.496005	1.708465	0.068221	-1.496005	1.406971	0.055429	-1.254690	1.306474	0.034108	-0.953077	1.205976	0.426369	-6.960233	8.943032	0.000000	0.000000	15.216874	1.069550	21.073896	22.220585	-5.964806	55.077136	67.438587	20.156617	-4.971270	13.853142	22.628547	-11.977171	54.843125	46.866537	47.376477	-6.145819	1.029704
0.033333	-5.453815	-3.708876	74.848866	0.104673	0.965672	0.323064	0.989447	-4.009431	-6.781670	0.228323	0.003985	13.727609	16.463932	0.000000	1.327638	6.078988	-6.441636	1.604448	0.028003	7.576746	-15.708102	0.000000	0.058155	-0.596255	1.674737	0.107999	-0.793020	1.779408	0.095542	-1.449736	1.779408	0.066465	-1.449736	1.465395	0.054002	-1.215884	1.360724	0.033230	-0.923600	1.256053	0.415393	-6.744961	9.314386	0.000000	0.000000	15.229494	1.217133	20.728515	21.601048	-6.551837	55.516427	67.110579	17.241300	-4.484204	13.139857	23.333539	-11.867078	60.339444	46.337106	42.481409	-5.587677	-0.033182
0.050000	-5.257750	-3.721483	74.767922	0.104010	0.965428	0.323039	0.939544	-3.852500	-6.592348	0.221400	0.003864	13.510844	16.232736	0.000000	1.241919	5.954085	-6.490157	1.689540	0.029488	7.204646	-16.056524	0.000000	0.057105	-0.573539	1.697940	0.106049	-0.762807	1.804061	0.093817	-1.394502	1.804061	0.065265	-1.394502	1.485698	0.053028	-1.169560	1.379576	0.032630	-0.888412	1.273455	0.407894	-6.487985	9.443434	0.000000	0.000000	15.286925	1.330979	20.466644	21.069431	-7.038751	56.351217	66.714829	15.342386	-3.940717	12.949815	23.764151	-11.825747	65.000236	45.996738	38.509716	-5.024310	-0.371610
0.066667	-5.036210	-3.724602	74.702259	0.103467	0.965194	0.323021	0.867572	-3.668238	-6.506923	0.216341	0.003776	13.333314	16.078005	0.000000	1.141286	5.786802	-6.518654	1.756202	0.030652	6.704261	-16.361570	0.000000	0.056518	-0.547843	1.682897	0.104960	-0.728631	1.788078	0.092854	-1.332024	1.788078	0.064595	-1.332024	1.472535	0.052483	-1.117160	1.367354	0.032294	-0.848608	1.262173	0.403703	-6.197304	9.359768	0.000000	0.000000	15.383236	1.412890	20.277464	20.619375	-7.433520	57.508627	66.266987	14.331434	-3.357600	13.201878	23.953120	-11.845272	68.886498	45.825238	35.394262	-4.464934	-0.099867
0.083333	-4.795482	-3.720489	74.653513	0.103026	0.964972	0.323011	0.777990	-3.462907	-6.513326	0.212934	0.003716	13.191404	15.991064	0.000000	1.030778	5.584987	-6.527218	1.806936	0.031537	6.105315	-16.624973	0.000000	0.056371	-0.519874	1.634929	0.104687	-0.691432	1.737112	0.092612	-1.264021	1.737112	0.064427	-1.264021	1.430563	0.052346	-1.060127	1.328380	0.032211	-0.805285	1.226197	0.402654	-5.880917	9.092984	0.000000	0.000000	15.512496	1.464665	20.150155	20.244524	-7.744119	58.915777	65.782703	14.080004	-2.751646	13.814910	23.933186	-11.917750	72.059226	45.802413	33.067909	-3.918768	0.667759
